FFmpeg version SVN-r25716, Copyright (c) 2000-2010 the FFmpeg developers  built on Nov 10 2010 12:23:18 with gcc 4.1.2 20080704 (Red Hat 4.1.2-48)  configuration: --enable-libmp3lame --enable-shared --disable-mmx --arch=x86_64  libavutil     50.33. 0 / 50.33. 0  libavcore      0.12. 1 /  0.12. 1  libavcodec    52.94. 4 / 52.94. 4  libavformat   52.84. 0 / 52.84. 0  libavdevice   52. 2. 2 / 52. 2. 2  libavfilter    1.59. 0 /  1.59. 0  libswscale     0.12. 0 /  0.12. 0Input #0, avi, from '/RAID10/data/converted_video_files/47518.avi':  Duration: 00:00:06.00, start: 0.000000, bitrate: 188749 kb/s    Stream #0.0: Video: msvideo1, rgb555le, 1024x1024, 20 tbr, 20 tbn, 20 tbc[buffer @ 0xeb894c0] w:1024 h:1024 pixfmt:rgb555le[ffsink @ 0xeb885a0] auto-inserting filter 'auto-inserted scaler 0' between the filter 'src' and the filter 'out'[scale @ 0xeb87460] w:1024 h:1024 fmt:rgb555le -> w:1024 h:1024 fmt:yuv420p flags:0x4Output #0, flv, to '/RAID10/data/converted_video_files/47518.flv':  Metadata:    encoder         : Lavf52.84.0    Stream #0.0: Video: flv, yuv420p, 1024x1024, q=2-31, 600 kb/s, 1k tbn, 24 tbcStream mapping:  Stream #0.0 -> #0.0Press [q] to stop encodingframe=    7 fps=  0 q=10.0 size=    1067kB time=0.33 bitrate=26170.3kbits/s    frame=   15 fps= 12 q=20.1 size=    1259kB time=0.75 bitrate=13752.5kbits/s    frame=   25 fps= 14 q=31.0 size=    1293kB time=1.25 bitrate=8473.4kbits/s    frame=   34 fps= 15 q=24.8 size=    1329kB time=1.71 bitrate=6369.7kbits/s    frame=   45 fps= 16 q=31.0 size=    1338kB time=2.25 bitrate=4873.0kbits/s    frame=   55 fps= 17 q=31.0 size=    1371kB time=2.75 bitrate=4084.6kbits/s    frame=   66 fps= 17 q=31.0 size=    1405kB time=3.29 bitrate=3495.5kbits/s    frame=   76 fps= 17 q=31.0 size=    1439kB time=3.79 bitrate=3108.4kbits/s    frame=   86 fps= 17 q=31.0 size=    1474kB time=4.29 bitrate=2813.5kbits/s    frame=   96 fps= 18 q=31.0 size=    1508kB time=4.79 bitrate=2578.6kbits/s    frame=  106 fps= 18 q=24.8 size=    1544kB time=5.29 bitrate=2389.4kbits/s    frame=  116 fps= 18 q=31.0 size=    1554kB time=5.79 bitrate=2198.2kbits/s    frame=  120 fps= 18 q=31.0 Lsize=    1583kB time=6.00 bitrate=2161.3kbits/s    video:1581kB audio:0kB global headers:0kB muxing overhead 0.131578%